HIERARCHY
ROOT root
{
	OFFSET 0.000000 0.000000 0.000000
	CHANNELS 6 Xposition Yposition Zposition Zrotation Yrotation Xrotation
	JOINT lhip
	{
		OFFSET 0.058581 -0.082280 -0.017664
		CHANNELS 3 Zrotation Yrotation Xrotation
		JOINT lknee
		{
			OFFSET 0.043451 -0.386469 0.008037
			CHANNELS 3 Zrotation Yrotation Xrotation
			JOINT lankle
			{
				OFFSET -0.014790 -0.426874 -0.037428
				CHANNELS 3 Zrotation Yrotation Xrotation
				JOINT ltoe
				{
					OFFSET 0.041054 -0.060286 0.122042
					CHANNELS 3 Zrotation Yrotation Xrotation
					End Site
					{
						OFFSET 0.000000 0.000000 0.000000
					}
				}
			}
		}
	}
	JOINT rhip
	{
		OFFSET -0.060310 -0.090513 -0.013543
		CHANNELS 3 Zrotation Yrotation Xrotation
		JOINT rknee
		{
			OFFSET -0.043257 -0.383688 -0.004843
			CHANNELS 3 Zrotation Yrotation Xrotation
			JOINT rankle
			{
				OFFSET 0.019056 -0.420046 -0.034562
				CHANNELS 3 Zrotation Yrotation Xrotation
				JOINT rtoe
				{
					OFFSET -0.034840 -0.062106 0.130323
					CHANNELS 3 Zrotation Yrotation Xrotation
					End Site
					{
						OFFSET 0.000000 0.000000 0.000000
					}
				}
			}
		}
	}
	JOINT lowerback
	{
		OFFSET 0.004439 0.124404 -0.038385
		CHANNELS 3 Zrotation Yrotation Xrotation
		JOINT upperback
		{
			OFFSET 0.004488 0.137956 0.026820
			CHANNELS 3 Zrotation Yrotation Xrotation
			JOINT chest
			{
				OFFSET -0.002265 0.056032 0.002855
				CHANNELS 3 Zrotation Yrotation Xrotation
				JOINT lowerneck
				{
					OFFSET -0.013390 0.211636 -0.033468
					CHANNELS 3 Zrotation Yrotation Xrotation
					JOINT upperneck
					{
						OFFSET 0.010113 0.088937 0.050410
						CHANNELS 3 Zrotation Yrotation Xrotation
						End Site
						{
							OFFSET 0.000000 0.000000 0.000000
						}
					}
				}
				JOINT lclavicle
				{
					OFFSET 0.071702 0.114000 -0.018898
					CHANNELS 3 Zrotation Yrotation Xrotation
					JOINT lshoulder
					{
						OFFSET 0.122921 0.045205 -0.019046
						CHANNELS 3 Zrotation Yrotation Xrotation
						JOINT lelbow
						{
							OFFSET 0.255332 -0.015649 -0.022946
							CHANNELS 3 Zrotation Yrotation Xrotation
							JOINT lwrist
							{
								OFFSET 0.265709 0.012698 -0.007375
								CHANNELS 3 Zrotation Yrotation Xrotation
								End Site
								{
									OFFSET 0.000000 0.000000 0.000000
								}
							}
						}
					}
				}
				JOINT rclavicle
				{
					OFFSET -0.082954 0.112472 -0.023707
					CHANNELS 3 Zrotation Yrotation Xrotation
					JOINT rshoulder
					{
						OFFSET -0.113228 0.046853 -0.008472
						CHANNELS 3 Zrotation Yrotation Xrotation
						JOINT relbow
						{
							OFFSET -0.260127 -0.014369 -0.031269
							CHANNELS 3 Zrotation Yrotation Xrotation
							JOINT rwrist
							{
								OFFSET -0.269108 0.006794 -0.006027
								CHANNELS 3 Zrotation Yrotation Xrotation
								End Site
								{
									OFFSET 0.000000 0.000000 0.000000
								}
							}
						}
					}
				}
			}
		}
	}
}
MOTION
Frames: 6
Frame Time: 0.033333
0.351792 0.229668 0.973496 86.272666 1.245935 89.253467 5.769247 3.236034 6.973933 -1.272087 -7.854663 0.308063 2.539770 10.485946 -13.393763 0.000000 -0.000000 0.000000 -5.217945 -1.564025 5.236482 2.448521 2.441031 0.829650 2.241925 -6.312252 -13.785020 0.000000 -0.000000 0.000000 1.347620 -1.305553 4.715840 1.734188 -2.692716 -1.683889 0.810079 -1.354858 0.697749 0.207296 -8.082117 -1.329568 -1.210795 -13.005174 8.299400 -23.323275 4.508683 2.380944 -61.243925 -7.545481 11.164079 0.843070 -27.046158 21.213710 -4.376013 0.239142 -4.993812 24.031136 2.920802 1.182222 55.605761 4.621843 17.504081 -4.211981 24.418148 18.573956 5.243336 -5.247975 8.642442 
0.351820 0.229905 0.973623 86.382953 1.223267 89.400203 5.670398 2.997803 6.899841 -1.137248 -8.148217 0.218143 2.468533 10.600532 -13.380398 0.000000 -0.000000 0.000000 -5.279189 -1.708308 5.134194 2.496649 2.364867 0.738352 2.445794 -6.239646 -13.754607 0.000000 -0.000000 0.000000 1.432695 -1.257019 4.754311 1.692746 -2.608538 -2.056386 0.940436 -1.299318 0.727848 0.181668 -6.863875 -1.282780 -1.398429 -11.685743 8.680598 -23.455598 4.532484 2.490298 -61.132497 -7.540538 11.098577 0.768398 -26.649802 21.171662 -4.162952 0.016839 -4.387930 24.079987 2.788789 1.360604 55.392416 4.731829 17.669983 -4.139899 24.408488 18.684371 4.997998 -4.998962 9.217215 
0.351904 0.229990 0.973462 86.547950 1.155414 89.510942 5.602834 2.961696 6.763819 -1.155980 -8.276360 0.227851 2.567363 10.628887 -13.333251 0.000000 -0.000000 0.000000 -5.377886 -1.769346 5.093947 2.550085 2.329168 0.682353 2.380010 -6.276595 -13.783319 0.000000 -0.000000 0.000000 1.485036 -1.244298 4.569707 1.642102 -2.587163 -2.072983 0.976532 -1.288467 0.827013 0.108787 -5.727011 -1.106133 -1.518554 -10.235220 8.675289 -23.400159 4.495907 2.531756 -61.186141 -7.577782 10.959121 0.874179 -26.639195 20.999444 -4.264465 0.525283 -4.692564 24.092300 2.859473 1.553023 55.349507 5.000973 17.779070 -4.182365 24.193077 18.829326 5.213407 -5.083392 9.293731 
0.351512 0.229950 0.973724 86.627558 1.151675 89.599412 5.630199 3.022047 6.577006 -1.183913 -8.326016 0.321642 2.570453 10.533935 -13.314573 0.000000 -0.000000 0.000000 -5.394361 -1.865337 4.993567 2.554722 2.215282 0.691141 2.418843 -6.190157 -13.781941 0.000000 -0.000000 0.000000 1.610018 -1.249598 4.575686 1.593194 -2.444546 -2.121276 0.989512 -1.258004 0.853317 0.137639 -4.454200 -0.952217 -1.806414 -8.582524 8.643200 -23.563847 4.610908 2.457870 -60.918351 -7.620297 10.822976 1.011490 -27.050063 20.985083 -4.739384 0.662244 -4.200048 24.115126 2.722430 1.721317 55.226455 5.257520 17.813638 -4.087792 24.310072 18.599596 5.335477 -5.065251 9.427530 
0.351472 0.229728 0.973701 86.668841 1.159816 89.686038 5.662645 2.990343 6.504657 -1.200493 -8.311789 0.251162 2.624431 10.524340 -13.232886 0.000000 -0.000000 0.000000 -5.329596 -1.848434 4.885282 2.514101 2.253852 0.697771 2.308774 -6.273974 -13.764159 0.000000 -0.000000 0.000000 1.618895 -1.219860 4.458928 1.643669 -2.422706 -2.155727 1.007986 -1.207702 0.954462 -0.055746 -3.957816 -0.811293 -1.805283 -8.010250 8.687152 -23.485338 4.436616 2.445143 -61.006310 -7.490038 10.957696 0.905625 -26.657289 21.077565 -3.944913 0.350045 -4.765754 24.006740 2.847876 1.770511 55.346954 5.279638 17.790213 -4.119741 24.320652 18.628365 5.181709 -5.116462 8.743172 
0.351017 0.229739 0.973756 86.826069 1.098344 89.771494 5.561470 2.913783 6.350791 -1.151920 -8.387954 0.287023 2.565806 10.564963 -13.261968 0.000000 -0.000000 0.000000 -5.369079 -1.749619 4.736996 2.544943 2.183755 0.773732 2.315353 -6.479492 -13.771238 0.000000 -0.000000 0.000000 1.568294 -1.232117 4.417858 1.612296 -2.369422 -2.107818 1.038442 -1.128993 0.964850 -0.121460 -3.415698 -0.722475 -1.928600 -7.588389 9.001853 -23.564147 4.347747 2.414431 -60.854819 -7.619036 10.927424 0.988542 -26.808562 20.731451 -4.104136 0.390638 -4.818144 24.133581 2.882031 1.891653 55.217900 5.361751 17.887749 -4.283172 24.652929 18.363274 5.337457 -5.199728 8.800186 
